<mxfile host="app.diagrams.net" agent="Mozilla/5.0 (Macintosh; Intel Mac OS X 10_15_7) AppleWebKit/537.36 (KHTML, like Gecko) Chrome/138.0.0.0 Safari/537.36" version="27.1.6">
  <diagram name="Page-1" id="1-SDgheZAcAL83luq5_0">
    <mxGraphModel dx="932" dy="1224" grid="1" gridSize="10" guides="1" tooltips="1" connect="1" arrows="1" fold="1" page="1" pageScale="1" pageWidth="850" pageHeight="1100" math="0" shadow="0">
      <root>
        <mxCell id="0" />
        <mxCell id="1" parent="0" />
        <mxCell id="oMM0Ju_mb2_yokq0EX_5-1" value="" style="shape=table;startSize=0;container=1;collapsible=0;childLayout=tableLayout;fontSize=11;fillColor=none;strokeColor=none;" parent="1" vertex="1">
          <mxGeometry x="400" y="570" width="60" height="60" as="geometry" />
        </mxCell>
        <mxCell id="oMM0Ju_mb2_yokq0EX_5-3" value="gRPC" style="rounded=1;whiteSpace=wrap;html=1;fillColor=#6d8764;fontColor=#ffffff;strokeColor=#3A5431;" parent="1" vertex="1">
          <mxGeometry x="180" y="220" width="120" height="60" as="geometry" />
        </mxCell>
        <mxCell id="oMM0Ju_mb2_yokq0EX_5-4" value="HTTP" style="rounded=1;whiteSpace=wrap;html=1;fillColor=#647687;fontColor=#ffffff;strokeColor=#314354;" parent="1" vertex="1">
          <mxGeometry x="380" y="220" width="120" height="60" as="geometry" />
        </mxCell>
        <mxCell id="oMM0Ju_mb2_yokq0EX_5-19" value="" style="rounded=1;whiteSpace=wrap;html=1;fillColor=#76608a;fontColor=#ffffff;strokeColor=#432D57;" parent="1" vertex="1">
          <mxGeometry x="180" y="310" width="320" height="130" as="geometry" />
        </mxCell>
        <mxCell id="oMM0Ju_mb2_yokq0EX_5-20" value="" style="childLayout=tableLayout;recursiveResize=0;shadow=0;fillColor=none;strokeColor=none;" parent="1" vertex="1">
          <mxGeometry x="200" y="340" width="280" height="76" as="geometry" />
        </mxCell>
        <mxCell id="oMM0Ju_mb2_yokq0EX_5-21" value="" style="shape=tableRow;horizontal=0;startSize=0;swimlaneHead=0;swimlaneBody=0;top=0;left=0;bottom=0;right=0;dropTarget=0;collapsible=0;recursiveResize=0;expand=0;fontStyle=0;fillColor=none;" parent="oMM0Ju_mb2_yokq0EX_5-20" vertex="1">
          <mxGeometry width="280" height="40" as="geometry" />
        </mxCell>
        <mxCell id="oMM0Ju_mb2_yokq0EX_5-22" value="Post Event &amp;amp; Validate Schema" style="connectable=0;recursiveResize=0;strokeColor=none;fillColor=none;align=center;whiteSpace=wrap;html=1;" parent="oMM0Ju_mb2_yokq0EX_5-21" vertex="1">
          <mxGeometry width="94" height="40" as="geometry">
            <mxRectangle width="94" height="40" as="alternateBounds" />
          </mxGeometry>
        </mxCell>
        <mxCell id="oMM0Ju_mb2_yokq0EX_5-23" value="CURD Schema" style="connectable=0;recursiveResize=0;strokeColor=none;fillColor=none;align=center;whiteSpace=wrap;html=1;" parent="oMM0Ju_mb2_yokq0EX_5-21" vertex="1">
          <mxGeometry x="94" width="92" height="40" as="geometry">
            <mxRectangle width="92" height="40" as="alternateBounds" />
          </mxGeometry>
        </mxCell>
        <mxCell id="oMM0Ju_mb2_yokq0EX_5-24" value="Add/Query/Delete Bus" style="connectable=0;recursiveResize=0;strokeColor=none;fillColor=none;align=center;whiteSpace=wrap;html=1;" parent="oMM0Ju_mb2_yokq0EX_5-21" vertex="1">
          <mxGeometry x="186" width="94" height="40" as="geometry">
            <mxRectangle width="94" height="40" as="alternateBounds" />
          </mxGeometry>
        </mxCell>
        <mxCell id="oMM0Ju_mb2_yokq0EX_5-25" style="shape=tableRow;horizontal=0;startSize=0;swimlaneHead=0;swimlaneBody=0;top=0;left=0;bottom=0;right=0;dropTarget=0;collapsible=0;recursiveResize=0;expand=0;fontStyle=0;fillColor=none;" parent="oMM0Ju_mb2_yokq0EX_5-20" vertex="1">
          <mxGeometry y="40" width="280" height="36" as="geometry" />
        </mxCell>
        <mxCell id="oMM0Ju_mb2_yokq0EX_5-26" value="CURD Rule" style="connectable=0;recursiveResize=0;strokeColor=none;fillColor=none;align=center;whiteSpace=wrap;html=1;" parent="oMM0Ju_mb2_yokq0EX_5-25" vertex="1">
          <mxGeometry width="94" height="36" as="geometry">
            <mxRectangle width="94" height="36" as="alternateBounds" />
          </mxGeometry>
        </mxCell>
        <mxCell id="oMM0Ju_mb2_yokq0EX_5-27" value="Add/Delete Target" style="connectable=0;recursiveResize=0;strokeColor=none;fillColor=none;align=center;whiteSpace=wrap;html=1;" parent="oMM0Ju_mb2_yokq0EX_5-25" vertex="1">
          <mxGeometry x="94" width="92" height="36" as="geometry">
            <mxRectangle width="92" height="36" as="alternateBounds" />
          </mxGeometry>
        </mxCell>
        <mxCell id="oMM0Ju_mb2_yokq0EX_5-28" value="Query&lt;br&gt;DispatcherSchema" style="connectable=0;recursiveResize=0;strokeColor=none;fillColor=none;align=center;whiteSpace=wrap;html=1;" parent="oMM0Ju_mb2_yokq0EX_5-25" vertex="1">
          <mxGeometry x="186" width="94" height="36" as="geometry">
            <mxRectangle width="94" height="36" as="alternateBounds" />
          </mxGeometry>
        </mxCell>
        <mxCell id="oMM0Ju_mb2_yokq0EX_5-33" value="" style="rounded=1;whiteSpace=wrap;html=1;fillColor=#a0522d;fontColor=#ffffff;strokeColor=#6D1F00;" parent="1" vertex="1">
          <mxGeometry x="180" y="470" width="320" height="60" as="geometry" />
        </mxCell>
        <mxCell id="oMM0Ju_mb2_yokq0EX_5-47" value="" style="childLayout=tableLayout;recursiveResize=0;shadow=0;fillColor=none;strokeColor=none;" parent="1" vertex="1">
          <mxGeometry x="200" y="476.5" width="280" height="47" as="geometry" />
        </mxCell>
        <mxCell id="oMM0Ju_mb2_yokq0EX_5-48" value="" style="shape=tableRow;horizontal=0;startSize=0;swimlaneHead=0;swimlaneBody=0;top=0;left=0;bottom=0;right=0;dropTarget=0;collapsible=0;recursiveResize=0;expand=0;fontStyle=0;fillColor=none;" parent="oMM0Ju_mb2_yokq0EX_5-47" vertex="1">
          <mxGeometry width="280" height="47" as="geometry" />
        </mxCell>
        <mxCell id="oMM0Ju_mb2_yokq0EX_5-60" value="Log" style="connectable=0;recursiveResize=0;strokeColor=none;fillColor=none;align=center;whiteSpace=wrap;html=1;" parent="oMM0Ju_mb2_yokq0EX_5-48" vertex="1">
          <mxGeometry width="70" height="47" as="geometry">
            <mxRectangle width="70" height="47" as="alternateBounds" />
          </mxGeometry>
        </mxCell>
        <mxCell id="oMM0Ju_mb2_yokq0EX_5-49" value="Trace" style="connectable=0;recursiveResize=0;strokeColor=none;fillColor=none;align=center;whiteSpace=wrap;html=1;" parent="oMM0Ju_mb2_yokq0EX_5-48" vertex="1">
          <mxGeometry x="70" width="70" height="47" as="geometry">
            <mxRectangle width="70" height="47" as="alternateBounds" />
          </mxGeometry>
        </mxCell>
        <mxCell id="oMM0Ju_mb2_yokq0EX_5-50" value="Metric" style="connectable=0;recursiveResize=0;strokeColor=none;fillColor=none;align=center;whiteSpace=wrap;html=1;" parent="oMM0Ju_mb2_yokq0EX_5-48" vertex="1">
          <mxGeometry x="140" width="70" height="47" as="geometry">
            <mxRectangle width="70" height="47" as="alternateBounds" />
          </mxGeometry>
        </mxCell>
        <mxCell id="oMM0Ju_mb2_yokq0EX_5-51" value="pprof" style="connectable=0;recursiveResize=0;strokeColor=none;fillColor=none;align=center;whiteSpace=wrap;html=1;" parent="oMM0Ju_mb2_yokq0EX_5-48" vertex="1">
          <mxGeometry x="210" width="70" height="47" as="geometry">
            <mxRectangle width="70" height="47" as="alternateBounds" />
          </mxGeometry>
        </mxCell>
        <mxCell id="oMM0Ju_mb2_yokq0EX_5-61" value="" style="rounded=1;whiteSpace=wrap;html=1;fillColor=#f0a30a;fontColor=#000000;strokeColor=#BD7000;" parent="1" vertex="1">
          <mxGeometry x="180" y="560" width="320" height="60" as="geometry" />
        </mxCell>
        <mxCell id="oMM0Ju_mb2_yokq0EX_5-62" value="" style="childLayout=tableLayout;recursiveResize=0;shadow=0;fillColor=none;strokeColor=none;" parent="1" vertex="1">
          <mxGeometry x="200" y="566.5" width="280" height="47" as="geometry" />
        </mxCell>
        <mxCell id="oMM0Ju_mb2_yokq0EX_5-63" value="" style="shape=tableRow;horizontal=0;startSize=0;swimlaneHead=0;swimlaneBody=0;top=0;left=0;bottom=0;right=0;dropTarget=0;collapsible=0;recursiveResize=0;expand=0;fontStyle=0;fillColor=none;" parent="oMM0Ju_mb2_yokq0EX_5-62" vertex="1">
          <mxGeometry width="280" height="47" as="geometry" />
        </mxCell>
        <mxCell id="oMM0Ju_mb2_yokq0EX_5-64" value="Redis" style="connectable=0;recursiveResize=0;strokeColor=none;fillColor=none;align=center;whiteSpace=wrap;html=1;" parent="oMM0Ju_mb2_yokq0EX_5-63" vertex="1">
          <mxGeometry width="93" height="47" as="geometry">
            <mxRectangle width="93" height="47" as="alternateBounds" />
          </mxGeometry>
        </mxCell>
        <mxCell id="oMM0Ju_mb2_yokq0EX_5-65" value="Postgres" style="connectable=0;recursiveResize=0;strokeColor=none;fillColor=none;align=center;whiteSpace=wrap;html=1;" parent="oMM0Ju_mb2_yokq0EX_5-63" vertex="1">
          <mxGeometry x="93" width="94" height="47" as="geometry">
            <mxRectangle width="94" height="47" as="alternateBounds" />
          </mxGeometry>
        </mxCell>
        <mxCell id="oMM0Ju_mb2_yokq0EX_5-66" value="MQ" style="connectable=0;recursiveResize=0;strokeColor=none;fillColor=none;align=center;whiteSpace=wrap;html=1;" parent="oMM0Ju_mb2_yokq0EX_5-63" vertex="1">
          <mxGeometry x="187" width="93" height="47" as="geometry">
            <mxRectangle width="93" height="47" as="alternateBounds" />
          </mxGeometry>
        </mxCell>
        <mxCell id="oMM0Ju_mb2_yokq0EX_5-69" value="" style="shape=curlyBracket;whiteSpace=wrap;html=1;rounded=1;labelPosition=left;verticalLabelPosition=middle;align=right;verticalAlign=middle;" parent="1" vertex="1">
          <mxGeometry x="140" y="220" width="20" height="60" as="geometry" />
        </mxCell>
        <mxCell id="oMM0Ju_mb2_yokq0EX_5-70" value="" style="shape=curlyBracket;whiteSpace=wrap;html=1;rounded=1;labelPosition=left;verticalLabelPosition=middle;align=right;verticalAlign=middle;" parent="1" vertex="1">
          <mxGeometry x="140" y="310" width="20" height="130" as="geometry" />
        </mxCell>
        <mxCell id="oMM0Ju_mb2_yokq0EX_5-71" value="" style="shape=curlyBracket;whiteSpace=wrap;html=1;rounded=1;labelPosition=left;verticalLabelPosition=middle;align=right;verticalAlign=middle;" parent="1" vertex="1">
          <mxGeometry x="140" y="470" width="20" height="60" as="geometry" />
        </mxCell>
        <mxCell id="oMM0Ju_mb2_yokq0EX_5-72" value="" style="shape=curlyBracket;whiteSpace=wrap;html=1;rounded=1;labelPosition=left;verticalLabelPosition=middle;align=right;verticalAlign=middle;" parent="1" vertex="1">
          <mxGeometry x="140" y="560" width="20" height="60" as="geometry" />
        </mxCell>
        <mxCell id="oMM0Ju_mb2_yokq0EX_5-73" value="Protocol" style="text;html=1;align=center;verticalAlign=middle;resizable=0;points=[];autosize=1;strokeColor=none;fillColor=none;" parent="1" vertex="1">
          <mxGeometry x="60" y="235" width="70" height="30" as="geometry" />
        </mxCell>
        <mxCell id="oMM0Ju_mb2_yokq0EX_5-74" value="Function" style="text;html=1;align=center;verticalAlign=middle;resizable=0;points=[];autosize=1;strokeColor=none;fillColor=none;" parent="1" vertex="1">
          <mxGeometry x="60" y="360" width="70" height="30" as="geometry" />
        </mxCell>
        <mxCell id="oMM0Ju_mb2_yokq0EX_5-75" value="Observability" style="text;html=1;align=center;verticalAlign=middle;resizable=0;points=[];autosize=1;strokeColor=none;fillColor=none;" parent="1" vertex="1">
          <mxGeometry x="50" y="493.5" width="90" height="30" as="geometry" />
        </mxCell>
        <mxCell id="oMM0Ju_mb2_yokq0EX_5-76" value="Storage" style="text;html=1;align=center;verticalAlign=middle;resizable=0;points=[];autosize=1;strokeColor=none;fillColor=none;" parent="1" vertex="1">
          <mxGeometry x="60" y="575" width="70" height="30" as="geometry" />
        </mxCell>
      </root>
    </mxGraphModel>
  </diagram>
</mxfile>
